<?xml version="1.0" encoding="utf-8"?>
<!-- Generator: Adobe Illustrator 24.1.1, SVG Export Plug-In . SVG Version: 6.00 Build 0)  -->
<svg version="1.1" id="Layer_1" xmlns="http://www.w3.org/2000/svg" xmlns:xlink="http://www.w3.org/1999/xlink" x="0px" y="0px"
	 viewBox="0 0 512 512" style="enable-background:new 0 0 512 512;" xml:space="preserve">
<style type="text/css">
	.st0{fill:#FFDFBA;}
	.st1{fill:#FE4F60;}
	.st2{fill:#42434D;}
	.st3{fill:#FFEBD2;}
	.st4{fill:#FFFFFF;}
	.st5{fill:#FFF3E4;}
	.st6{fill:#FFD6A6;}
	.st7{fill:#FF6D7A;}
	.st8{fill:#E84857;}
	.st9{fill:#4D4E59;}
</style>
<g>
	<path class="st0" d="M425.9,459.9v43.3c0,4.9-3.9,8.8-8.8,8.8H94.9c-4.9,0-8.8-3.9-8.8-8.8v-43.3c0-45.4,36.8-82.3,82.3-82.3
		c16.1,0,30.2-8.3,38.4-20.8c8.2-12.6,7.3-23.5,7.3-32.3l0.2-0.4c-39.6-16.4-67.5-55.4-67.5-101v-3.5c-15.7,0-27.6-12.4-27.6-27.1
		v-45.9c-0.4-16,0.4-72.3,41-111.5c47.3-45.6,122.2-41.8,176.5-17.5c1.8,0.8,1.7,3.3-0.1,4.1l-14.2,5.8c-2.1,0.9-1.7,4,0.6,4.2
		l6.9,0.7c32.9,3.5,63.5,21.4,82.4,51.1c0.5,0.8,0.4,2-0.3,2.7c-11.7,12.4-18.2,28.8-18.2,45.9v60.2c0,14.9-12.1,27.1-27.1,27.1
		h-1.6v3.5c0,45.5-27.9,84.6-67.5,101l0.2,0.4c0,8.6-0.9,19.7,7.3,32.3c8.1,12.5,22.3,20.8,38.4,20.8
		C389.1,377.6,425.9,414.4,425.9,459.9L425.9,459.9z"/>
	<path class="st1" d="M425.9,459.9v43.3c0,4.9-4,8.8-8.8,8.8H94.9c-4.9,0-8.8-4-8.8-8.8v-43.3c0-45.4,36.8-82.3,82.3-82.3
		c16.1,0,30.2-8.3,38.4-20.8c28.4,24.3,70.1,24.3,98.5,0c8.1,12.5,22.3,20.8,38.4,20.8C389.1,377.6,425.9,414.4,425.9,459.9
		L425.9,459.9z"/>
	<path class="st2" d="M412.4,83.8c0.5,0.8,0.4,2-0.3,2.7c-11.7,12.4-18.2,28.8-18.2,45.9v60.2c0,13.7-10.3,27.1-28.7,27.1v-68.2
		c0-29.2-23.7-53-53-53H199.7c-29.2,0-53,23.7-53,53v68.2c-15.7,0-27.6-12.4-27.6-27.1v-45.9c-0.4-16,0.4-72.3,41-111.5
		c47.3-45.6,122.2-41.8,176.5-17.5c1.8,0.8,1.7,3.3-0.1,4.1l-14.2,5.8c-2.1,0.9-1.7,4,0.6,4.2l6.9,0.7
		C362.9,36.1,393.5,54,412.4,83.8z"/>
	<path class="st3" d="M365.2,223.1c0,60.3-48.9,109.2-109.2,109.2c-56.8,0-109.2-44.2-109.2-112.7v-68.2c0-29.2,23.7-53,53-53h112.5
		c29.2,0,53,23.7,53,53V223.1z"/>
	<path class="st4" d="M345.4,493.2h-26.5c-4.9,0-8.8-4-8.8-8.8s4-8.8,8.8-8.8h26.5c4.9,0,8.8,4,8.8,8.8S350.2,493.2,345.4,493.2z"/>
	<path class="st5" d="M231.3,293.6c18,11.2,3.8,38.8-15.9,30.9c-40.4-16.2-68.6-55.6-68.6-101.4v-71.6c0-11.1,3.4-21.5,9.3-30
		c7.2-10.5,23.8-5.8,23.8,7.9V201C179.9,241.3,201,274.7,231.3,293.6L231.3,293.6z"/>
	<path class="st6" d="M299.2,342.6c-27.2,11.4-57.1,12.3-86.3,0c1.5-6.2,1.2-10.2,1.2-18.1l0.2-0.4c26.6,11,56.9,11.1,83.5,0
		l0.2,0.4C297.9,332.3,297.7,336.3,299.2,342.6z"/>
	<path class="st7" d="M212.8,404.2c-4.1,1.3-8.5,2-13.1,2c-45.6,0.4-82.7,36.4-82.7,82v8.3c0,8.5-6.9,15.4-15.4,15.4h-6.6
		c-4.9,0-8.8-4-8.8-8.8v-43.3c0-45.4,36.8-82.3,82.3-82.3c16.1,0,30.2-8.3,38.4-20.8c3.3,2.8,6.8,5.3,10.5,7.5
		C233.5,374,230.9,398.6,212.8,404.2L212.8,404.2z"/>
	<path class="st8" d="M299.2,404.2c4.1,1.3,8.5,2,13.1,2c45.6,0.4,82.7,36.4,82.7,82v8.3c0,8.5,6.9,15.4,15.4,15.4h6.6
		c4.9,0,8.8-4,8.8-8.8v-43.3c0-45.4-36.8-82.3-82.3-82.3c-16.1,0-30.2-8.3-38.4-20.8c-3.3,2.8-6.8,5.3-10.5,7.5
		C278.5,374,281.1,398.6,299.2,404.2L299.2,404.2z"/>
	<path class="st9" d="M336.7,21.8c-13,5.3-14.8,6.5-19.3,5.8c-72.5-11.2-136,18.7-157.6,89.1v0c-8.1,9.3-13,21.4-13,34.7v41.4
		c0,17.9-27.6,19.1-27.6-0.3v-45.9c-0.4-16,0.4-72.3,41-111.5c47.3-45.6,122.2-41.8,176.5-17.5C338.5,18.6,338.5,21.1,336.7,21.8z"
		/>
</g>
</svg>
